<?xml version="1.0" standalone="no"?>
<!DOCTYPE svg PUBLIC "-//W3C//DTD SVG 20010904//EN"
 "http://www.w3.org/TR/2001/REC-SVG-20010904/DTD/svg10.dtd">
<svg version="1.0" xmlns="http://www.w3.org/2000/svg"
 width="70.000000pt" height="70.000000pt" viewBox="0 0 70.000000 70.000000"
 preserveAspectRatio="xMidYMid meet">
<metadata>
Created by potrace 1.14, written by Peter Selinger 2001-2017
</metadata>
<g transform="translate(0.000000,70.000000) scale(0.100000,-0.100000)"
fill="#000000" stroke="none">
<path d="M0 350 l0 -350 350 0 350 0 0 350 0 350 -350 0 -350 0 0 -350z m366
224 c26 -8 72 -14 103 -14 96 0 161 -64 161 -160 0 -103 -92 -175 -197 -155
-50 9 -110 71 -119 122 -9 50 -40 110 -71 139 -22 20 -23 24 -8 24 10 0 37
-11 60 -24 41 -24 69 -66 80 -119 7 -35 45 -74 79 -83 57 -14 116 38 116 101
0 59 -47 95 -126 95 -63 0 -120 33 -146 85 l-21 40 21 -18 c11 -10 41 -25 68
-33z"/>
</g>
</svg>
